<?xml version="1.0" encoding="UTF-8" standalone="no"?>
<!-- Created with Inkscape (http://www.inkscape.org/) -->

<svg
   xmlns:dc="http://purl.org/dc/elements/1.1/"
   xmlns:cc="http://creativecommons.org/ns#"
   xmlns:rdf="http://www.w3.org/1999/02/22-rdf-syntax-ns#"
   xmlns:svg="http://www.w3.org/2000/svg"
   xmlns="http://www.w3.org/2000/svg"
   xmlns:sodipodi="http://sodipodi.sourceforge.net/DTD/sodipodi-0.dtd"
   xmlns:inkscape="http://www.inkscape.org/namespaces/inkscape"
   width="538.00018"
   height="511.99988"
   viewBox="0 0 142.34588 135.46664"
   version="1.1"
   id="svg8"
   inkscape:export-filename="D:\Git\layout-template\public\img\buttons.png"
   inkscape:export-xdpi="96"
   inkscape:export-ydpi="96"
   inkscape:version="0.92.1 r15371"
   sodipodi:docname="buttons.svg">
  <defs
     id="defs2" />
  <sodipodi:namedview
     id="base"
     pagecolor="#ffffff"
     bordercolor="#666666"
     borderopacity="1.0"
     inkscape:pageopacity="0.0"
     inkscape:pageshadow="2"
     inkscape:zoom="1.4"
     inkscape:cx="206.6295"
     inkscape:cy="299.16701"
     inkscape:document-units="px"
     inkscape:current-layer="layer1"
     showgrid="false"
     showguides="true"
     inkscape:guide-bbox="true"
     units="px"
     inkscape:snap-bbox="true"
     inkscape:bbox-paths="true"
     inkscape:snap-bbox-edge-midpoints="true"
     inkscape:snap-bbox-midpoints="true"
     inkscape:bbox-nodes="true"
     inkscape:snap-object-midpoints="true"
     inkscape:snap-center="true"
     inkscape:snap-intersection-paths="true"
     inkscape:object-paths="true"
     inkscape:object-nodes="true"
     inkscape:snap-midpoints="true"
     inkscape:snap-smooth-nodes="true"
     inkscape:window-width="2560"
     inkscape:window-height="1377"
     inkscape:window-x="-8"
     inkscape:window-y="-8"
     inkscape:window-maximized="1"
     fit-margin-top="0"
     fit-margin-left="0"
     fit-margin-right="0"
     fit-margin-bottom="0">
    <sodipodi:guide
       position="5.7696309e-009,4.9145837e-007"
       orientation="0,1"
       id="guide4553"
       inkscape:locked="false"
       inkscape:label=""
       inkscape:color="rgb(0,0,255)" />
    <sodipodi:guide
       position="5.7696309e-009,33.866668"
       orientation="0,1"
       id="guide4564"
       inkscape:locked="false"
       inkscape:label=""
       inkscape:color="rgb(0,0,255)" />
  </sodipodi:namedview>
  <metadata
     id="metadata5">
    <rdf:RDF>
      <cc:Work
         rdf:about="">
        <dc:format>image/svg+xml</dc:format>
        <dc:type
           rdf:resource="http://purl.org/dc/dcmitype/StillImage" />
        <dc:title></dc:title>
      </cc:Work>
    </rdf:RDF>
  </metadata>
  <g
     inkscape:label="Ebene 1"
     inkscape:groupmode="layer"
     id="layer1"
     transform="translate(0,-161.53335)">
    <path
       style="fill:#a6d49f;fill-opacity:1;stroke-width:0.12726726"
       d="m 107.69011,247.10897 -6.09006,-0.0682 20.27188,-17.77409 20.47396,17.77409 -6.00867,0.0682 v 16.02436 h -10.18314 l -0.0661,-12.02172 -8.21218,-0.0672 v 12.08886 h -10.18563 z"
       id="path4559"
       inkscape:connector-curvature="0"
       sodipodi:nodetypes="cccccccccccc" />
    <path
       style="fill:#a6d49f;fill-opacity:1;stroke-width:0.14372218"
       d="m 33.909199,259.35013 c 0.120474,-1.85791 -0.363011,-4.02454 1.085062,-5.499 2.6107,-2.9661 6.622469,-4.08936 10.336691,-4.95908 5.876385,-1.31968 12.116293,-0.27586 17.516586,2.27205 2.3645,1.11673 4.85526,3.13427 4.78515,5.99192 0.0526,1.99204 0.067,3.98488 0.10064,5.97731 -11.288878,0 -22.57777,0 -33.866662,0 0.01418,-1.26107 0.02836,-2.52213 0.04253,-3.7832 z m 29.638769,-1.47225 c 0.35447,-1.78909 -1.53283,-2.59472 -2.84746,-3.22133 -3.206604,-1.47805 -6.733049,-2.29282 -10.273254,-2.11549 -4.206621,-0.082 -8.487277,1.07802 -11.956924,3.47386 -0.900475,0.77343 -0.485451,2.0447 -0.577227,3.08298 8.551622,0 17.103246,0 25.654865,0 0,-0.40667 0,-0.81335 0,-1.22002 z M 49.000655,246.03432 c -4.000687,-0.81927 -7.076136,-4.82284 -6.643667,-8.91932 0.140121,-4.32986 4.229811,-8.12607 8.587541,-7.83233 4.694712,-0.0577 8.741139,4.52978 8.195679,9.17544 -0.261231,4.8467 -5.391953,8.76785 -10.139553,7.57621 z m 3.306736,-4.18437 c 2.003301,-0.81217 3.288312,-3.14263 2.626265,-5.25466 -0.627543,-3.03408 -4.833253,-4.29457 -7.053007,-2.16201 -2.400692,1.94821 -1.733687,6.23526 1.135165,7.37371 1.031188,0.40288 2.237418,0.31893 3.291577,0.043 z"
       id="path4509"
       inkscape:connector-curvature="0" />
    <path
       style="fill:#a6d49f;fill-opacity:1;stroke-width:0.09919313"
       d="m 17.744516,244.39488 c 2.907704,-0.43548 4.980806,-3.68798 3.976102,-6.49285 -0.865286,-2.98927 -4.77195,-4.52766 -7.391161,-2.77497 -2.590629,1.43674 -3.216391,5.21957 -1.316061,7.46223 1.096106,1.38824 2.982943,2.14275 4.73112,1.80559 z m 1.343849,13.73522 c 3.167255,-0.59014 6.186826,-2.43701 7.914856,-5.184 -0.05016,-2.01128 -2.131032,-3.11326 -3.75633,-3.83261 -3.177371,-1.33574 -6.757616,-1.73158 -10.108377,-0.839 -2.32791,0.6412 -5.0432127,1.50122 -6.1910215,3.82186 -0.2704268,1.86437 1.9362122,3.06506 3.1777045,4.14976 2.606018,1.74854 5.871474,2.47235 8.963168,1.88399 z m -3.991674,4.91084 C 9.3543919,262.46572 4.1299602,258.70248 1.65553,253.50797 c -2.47891519,-5.05966 -2.14680618,-11.32858 0.8137474,-16.11854 3.1056531,-5.1147 9.0573576,-8.45105 15.0735886,-8.09709 7.348066,0.10445 14.1372,5.66645 15.814875,12.79782 1.547561,5.96377 -0.50875,12.6592 -5.1555,16.71106 -3.518506,3.17693 -8.393953,4.74211 -13.10555,4.23972 z"
       id="path4544"
       inkscape:connector-curvature="0" />
    <path
       style="fill:#a6d49f;fill-opacity:1;stroke-width:0.26342201"
       d="m 71.437501,229.26689 c -2.044142,0 -3.704167,1.65568 -3.704167,3.69957 0,0 0,0.003 0,0.004 0,2.47068 0,7.41206 0,7.41206 h 3.704167 v -7.41206 l 26.456782,-0.004 v 26.46332 H 71.437501 v -7.4162 h -3.704167 v 7.4162 c 0.0024,2.04357 1.659803,3.69955 3.704167,3.69955 v 0.004 h 26.458333 v -0.004 c 2.045756,0 3.704166,-1.6582 3.704166,-3.70371 v -26.45503 -0.005 c -0.003,-2.04267 -1.659167,-3.6974 -3.7021,-3.69853 h -0.0021 z m 12.632303,7.99955 -2.619478,2.61915 4.463294,4.46273 H 67.733334 v 3.7037 H 85.91362 l -4.463294,4.46276 2.619478,2.61915 8.934855,-8.93376 z"
       id="path4577"
       inkscape:connector-curvature="0"
       sodipodi:nodetypes="ssscccccccccccccsccccscccccccccc" />
    <path
       sodipodi:nodetypes="cccccccccccc"
       inkscape:connector-curvature="0"
       id="path4618"
       d="m 107.69011,213.24231 -6.09006,-0.0682 20.27188,-17.77409 20.47396,17.77409 -6.00867,0.0682 v 16.02436 h -10.18314 l -0.0661,-12.02172 -8.21218,-0.0672 v 12.08886 h -10.18563 z"
       style="fill:#0b5500;fill-opacity:1;stroke-width:0.12726726" />
    <path
       inkscape:connector-curvature="0"
       id="path4620"
       d="m 33.909199,225.48347 c 0.120474,-1.85791 -0.363011,-4.02454 1.085062,-5.499 2.6107,-2.9661 6.622469,-4.08936 10.336691,-4.95908 5.876385,-1.31968 12.116293,-0.27586 17.516586,2.27205 2.3645,1.11673 4.85526,3.13427 4.78515,5.99192 0.0526,1.99204 0.067,3.98488 0.10064,5.97731 -11.288878,0 -22.57777,0 -33.866662,0 0.01418,-1.26107 0.02836,-2.52213 0.04253,-3.7832 z m 29.638769,-1.47225 c 0.35447,-1.78909 -1.53283,-2.59472 -2.84746,-3.22133 -3.206604,-1.47805 -6.733049,-2.29282 -10.273254,-2.11549 -4.206621,-0.082 -8.487277,1.07802 -11.956924,3.47386 -0.900475,0.77343 -0.485451,2.0447 -0.577227,3.08298 8.551622,0 17.103246,0 25.654865,0 0,-0.40667 0,-0.81335 0,-1.22002 z M 49.000655,212.16766 c -4.000687,-0.81927 -7.076136,-4.82284 -6.643667,-8.91932 0.140121,-4.32986 4.229811,-8.12607 8.587541,-7.83233 4.694712,-0.0577 8.741139,4.52978 8.195679,9.17544 -0.261231,4.8467 -5.391953,8.76785 -10.139553,7.57621 z m 3.306736,-4.18437 c 2.003301,-0.81217 3.288312,-3.14263 2.626265,-5.25466 -0.627543,-3.03408 -4.833253,-4.29457 -7.053007,-2.16201 -2.400692,1.94821 -1.733687,6.23526 1.135165,7.37371 1.031188,0.40288 2.237418,0.31893 3.291577,0.043 z"
       style="fill:#0b5500;fill-opacity:1;stroke-width:0.14372218" />
    <path
       inkscape:connector-curvature="0"
       id="path4622"
       d="m 17.744516,210.52822 c 2.907704,-0.43548 4.980806,-3.68798 3.976102,-6.49285 -0.865286,-2.98927 -4.77195,-4.52766 -7.391161,-2.77497 -2.590629,1.43674 -3.216391,5.21957 -1.316061,7.46223 1.096106,1.38824 2.982943,2.14275 4.73112,1.80559 z m 1.343849,13.73522 c 3.167255,-0.59014 6.186826,-2.43701 7.914856,-5.184 -0.05016,-2.01128 -2.131032,-3.11326 -3.75633,-3.83261 -3.177371,-1.33574 -6.757616,-1.73158 -10.108377,-0.839 -2.32791,0.6412 -5.0432127,1.50122 -6.1910215,3.82186 -0.2704268,1.86437 1.9362122,3.06506 3.1777045,4.14976 2.606018,1.74854 5.871474,2.47235 8.963168,1.88399 z m -3.991674,4.91084 C 9.3543919,228.59906 4.1299602,224.83582 1.65553,219.64131 c -2.47891519,-5.05966 -2.14680618,-11.32858 0.8137474,-16.11854 3.1056531,-5.1147 9.0573576,-8.45105 15.0735886,-8.09709 7.348066,0.10445 14.1372,5.66645 15.814875,12.79782 1.547561,5.96377 -0.50875,12.6592 -5.1555,16.71106 -3.518506,3.17693 -8.393953,4.74211 -13.10555,4.23972 z"
       style="fill:#0b5500;fill-opacity:1;stroke-width:0.09919313" />
    <path
       sodipodi:nodetypes="ssscccccccccccccsccccscccccccccc"
       inkscape:connector-curvature="0"
       id="path4624"
       d="m 71.437501,195.40023 c -2.044142,0 -3.704167,1.65568 -3.704167,3.69957 0,0 0,0.003 0,0.004 0,2.47068 0,7.41206 0,7.41206 h 3.704167 v -7.41206 l 26.456782,-0.004 v 26.46332 H 71.437501 v -7.4162 h -3.704167 v 7.4162 c 0.0024,2.04357 1.659803,3.69955 3.704167,3.69955 v 0.004 h 26.458333 v -0.004 c 2.045756,0 3.704166,-1.6582 3.704166,-3.70371 v -26.45503 -0.005 c -0.003,-2.04267 -1.659167,-3.6974 -3.7021,-3.69853 h -0.0021 z m 12.632303,7.99955 -2.619478,2.61915 4.463294,4.46273 H 67.733334 v 3.7037 H 85.91362 l -4.463294,4.46276 2.619478,2.61915 8.934855,-8.93376 z"
       style="fill:#0b5500;fill-opacity:1;stroke-width:0.26342201" />
    <path
       style="fill:#0b0000;fill-opacity:1;stroke-width:0.12726726"
       d="m 107.69011,179.37566 -6.09006,-0.0682 20.27188,-17.77409 20.47396,17.77409 -6.00867,0.0682 v 16.02436 h -10.18314 l -0.0661,-12.02172 -8.21218,-0.0672 v 12.08886 h -10.18563 z"
       id="path4626"
       inkscape:connector-curvature="0"
       sodipodi:nodetypes="cccccccccccc" />
    <path
       style="fill:#0b0000;fill-opacity:1;stroke-width:0.14372218"
       d="m 33.909199,191.61682 c 0.120474,-1.85791 -0.363011,-4.02454 1.085062,-5.499 2.6107,-2.9661 6.622469,-4.08936 10.336691,-4.95908 5.876385,-1.31968 12.116293,-0.27586 17.516586,2.27205 2.3645,1.11673 4.85526,3.13427 4.78515,5.99192 0.0526,1.99204 0.067,3.98488 0.10064,5.97731 -11.288878,0 -22.57777,0 -33.866662,0 0.01418,-1.26107 0.02836,-2.52213 0.04253,-3.7832 z m 29.638769,-1.47225 c 0.35447,-1.78909 -1.53283,-2.59472 -2.84746,-3.22133 -3.206604,-1.47805 -6.733049,-2.29282 -10.273254,-2.11549 -4.206621,-0.082 -8.487277,1.07802 -11.956924,3.47386 -0.900475,0.77343 -0.485451,2.0447 -0.577227,3.08298 8.551622,0 17.103246,0 25.654865,0 0,-0.40667 0,-0.81335 0,-1.22002 z M 49.000655,178.30101 c -4.000687,-0.81927 -7.076136,-4.82284 -6.643667,-8.91932 0.140121,-4.32986 4.229811,-8.12607 8.587541,-7.83233 4.694712,-0.0577 8.741139,4.52978 8.195679,9.17544 -0.261231,4.8467 -5.391953,8.76785 -10.139553,7.57621 z m 3.306736,-4.18437 c 2.003301,-0.81217 3.288312,-3.14263 2.626265,-5.25466 -0.627543,-3.03408 -4.833253,-4.29457 -7.053007,-2.16201 -2.400692,1.94821 -1.733687,6.23526 1.135165,7.37371 1.031188,0.40288 2.237418,0.31893 3.291577,0.043 z"
       id="path4628"
       inkscape:connector-curvature="0" />
    <path
       style="fill:#0b0000;fill-opacity:1;stroke-width:0.09919313"
       d="m 17.744516,176.66157 c 2.907704,-0.43548 4.980806,-3.68798 3.976102,-6.49285 -0.865286,-2.98927 -4.77195,-4.52766 -7.391161,-2.77497 -2.590629,1.43674 -3.216391,5.21957 -1.316061,7.46223 1.096106,1.38824 2.982943,2.14275 4.73112,1.80559 z m 1.343849,13.73522 c 3.167255,-0.59014 6.186826,-2.43701 7.914856,-5.184 -0.05016,-2.01128 -2.131032,-3.11326 -3.75633,-3.83261 -3.177371,-1.33574 -6.757616,-1.73158 -10.108377,-0.839 -2.32791,0.6412 -5.0432127,1.50122 -6.1910215,3.82186 -0.2704268,1.86437 1.9362122,3.06506 3.1777045,4.14976 2.606018,1.74854 5.871474,2.47235 8.963168,1.88399 z m -3.991674,4.91084 C 9.3543919,194.73241 4.1299602,190.96917 1.65553,185.77466 -0.82338519,180.715 -0.49127618,174.44608 2.4692774,169.65612 c 3.1056531,-5.1147 9.0573576,-8.45105 15.0735886,-8.09709 7.348066,0.10445 14.1372,5.66645 15.814875,12.79782 1.547561,5.96377 -0.50875,12.6592 -5.1555,16.71106 -3.518506,3.17693 -8.393953,4.74211 -13.10555,4.23972 z"
       id="path4630"
       inkscape:connector-curvature="0" />
    <path
       style="fill:#0b0000;fill-opacity:1;stroke-width:0.26342201"
       d="m 71.437501,161.53358 c -2.044142,0 -3.704167,1.65568 -3.704167,3.69957 0,0 0,0.003 0,0.004 0,2.47068 0,7.41206 0,7.41206 h 3.704167 v -7.41206 l 26.456782,-0.004 v 26.46332 H 71.437501 v -7.4162 h -3.704167 v 7.4162 c 0.0024,2.04357 1.659803,3.69955 3.704167,3.69955 v 0.004 h 26.458333 v -0.004 c 2.045756,0 3.704166,-1.6582 3.704166,-3.70371 v -26.45503 -0.005 c -0.003,-2.04267 -1.659167,-3.6974 -3.7021,-3.69853 h -0.0021 z m 12.632303,7.99955 -2.619478,2.61915 4.463294,4.46273 H 67.733334 v 3.7037 H 85.91362 l -4.463294,4.46276 2.619478,2.61915 8.934855,-8.93376 z"
       id="path4632"
       inkscape:connector-curvature="0"
       sodipodi:nodetypes="ssscccccccccccccsccccscccccccccc" />
    <path
       sodipodi:nodetypes="cccccccccccc"
       inkscape:connector-curvature="0"
       id="path4634"
       d="m 107.69011,280.97563 -6.09006,-0.0682 20.27188,-17.77409 20.47396,17.77409 -6.00867,0.0682 v 16.02436 h -10.18314 l -0.0661,-12.02172 -8.21218,-0.0672 v 12.08886 h -10.18563 z"
       style="fill:#ffffff;fill-opacity:1;stroke-width:0.12726726" />
    <path
       inkscape:connector-curvature="0"
       id="path4636"
       d="m 33.909199,293.21679 c 0.120474,-1.85791 -0.363011,-4.02454 1.085062,-5.499 2.6107,-2.9661 6.622469,-4.08936 10.336691,-4.95908 5.876385,-1.31968 12.116293,-0.27586 17.516586,2.27205 2.3645,1.11673 4.85526,3.13427 4.78515,5.99192 0.0526,1.99204 0.067,3.98488 0.10064,5.97731 -11.288878,0 -22.57777,0 -33.866662,0 0.01418,-1.26107 0.02836,-2.52213 0.04253,-3.7832 z m 29.638769,-1.47225 c 0.35447,-1.78909 -1.53283,-2.59472 -2.84746,-3.22133 -3.206604,-1.47805 -6.733049,-2.29282 -10.273254,-2.11549 -4.206621,-0.082 -8.487277,1.07802 -11.956924,3.47386 -0.900475,0.77343 -0.485451,2.0447 -0.577227,3.08298 8.551622,0 17.103246,0 25.654865,0 0,-0.40667 0,-0.81335 0,-1.22002 z M 49.000655,279.90098 c -4.000687,-0.81927 -7.076136,-4.82284 -6.643667,-8.91932 0.140121,-4.32986 4.229811,-8.12607 8.587541,-7.83233 4.694712,-0.0577 8.741139,4.52978 8.195679,9.17544 -0.261231,4.8467 -5.391953,8.76785 -10.139553,7.57621 z m 3.306736,-4.18437 c 2.003301,-0.81217 3.288312,-3.14263 2.626265,-5.25466 -0.627543,-3.03408 -4.833253,-4.29457 -7.053007,-2.16201 -2.400692,1.94821 -1.733687,6.23526 1.135165,7.37371 1.031188,0.40288 2.237418,0.31893 3.291577,0.043 z"
       style="fill:#ffffff;fill-opacity:1;stroke-width:0.14372218" />
    <path
       inkscape:connector-curvature="0"
       id="path4638"
       d="m 17.744516,278.26154 c 2.907704,-0.43548 4.980806,-3.68798 3.976102,-6.49285 -0.865286,-2.98927 -4.77195,-4.52766 -7.391161,-2.77497 -2.590629,1.43674 -3.216391,5.21957 -1.316061,7.46223 1.096106,1.38824 2.982943,2.14275 4.73112,1.80559 z m 1.343849,13.73522 c 3.167255,-0.59014 6.186826,-2.43701 7.914856,-5.184 -0.05016,-2.01128 -2.131032,-3.11326 -3.75633,-3.83261 -3.177371,-1.33574 -6.757616,-1.73158 -10.108377,-0.839 -2.32791,0.6412 -5.0432127,1.50122 -6.1910215,3.82186 -0.2704268,1.86437 1.9362122,3.06506 3.1777045,4.14976 2.606018,1.74854 5.871474,2.47235 8.963168,1.88399 z m -3.991674,4.91084 C 9.3543919,296.33238 4.1299602,292.56914 1.65553,287.37463 c -2.47891519,-5.05966 -2.14680618,-11.32858 0.8137474,-16.11854 3.1056531,-5.1147 9.0573576,-8.45105 15.0735886,-8.09709 7.348066,0.10445 14.1372,5.66645 15.814875,12.79782 1.547561,5.96377 -0.50875,12.6592 -5.1555,16.71106 -3.518506,3.17693 -8.393953,4.74211 -13.10555,4.23972 z"
       style="fill:#ffffff;fill-opacity:1;stroke-width:0.09919313" />
    <path
       sodipodi:nodetypes="ssscccccccccccccsccccscccccccccc"
       inkscape:connector-curvature="0"
       id="path4640"
       d="m 71.437501,263.13355 c -2.044142,0 -3.704167,1.65568 -3.704167,3.69957 0,0 0,0.003 0,0.004 0,2.47068 0,7.41206 0,7.41206 h 3.704167 v -7.41206 l 26.456782,-0.004 v 26.46332 H 71.437501 v -7.4162 h -3.704167 v 7.4162 c 0.0024,2.04357 1.659803,3.69955 3.704167,3.69955 v 0.004 h 26.458333 v -0.004 c 2.045756,0 3.704166,-1.6582 3.704166,-3.70371 v -26.45503 -0.005 c -0.003,-2.04267 -1.659167,-3.6974 -3.7021,-3.69853 h -0.0021 z m 12.632303,7.99955 -2.619478,2.61915 4.463294,4.46273 H 67.733334 v 3.7037 H 85.91362 l -4.463294,4.46276 2.619478,2.61915 8.934855,-8.93376 z"
       style="fill:#ffffff;fill-opacity:1;stroke-width:0.26342201" />
  </g>
</svg>
